<?xml version="1.0" standalone="no"?>
<!DOCTYPE svg PUBLIC "-//W3C//DTD SVG 20010904//EN"
 "http://www.w3.org/TR/2001/REC-SVG-20010904/DTD/svg10.dtd">
<svg version="1.0" xmlns="http://www.w3.org/2000/svg"
 width="512.000000pt" height="512.000000pt" viewBox="0 0 512.000000 512.000000"
 preserveAspectRatio="xMidYMid meet">
<metadata>
Created by potrace 1.11, written by Peter Selinger 2001-2013
</metadata>
<g transform="translate(0.000000,512.000000) scale(0.100000,-0.100000)"
fill="#000000" stroke="none">
<path d="M2489 4589 c-55 -8 -126 -38 -160 -67 -13 -11 -125 -104 -249 -207
-289 -240 -349 -289 -410 -341 -14 -12 -86 -72 -160 -134 -209 -173 -592 -491
-635 -528 -11 -9 -51 -43 -90 -76 -38 -32 -81 -67 -94 -78 -13 -12 -50 -42
-81 -67 -290 -236 -593 -497 -601 -518 -21 -55 -7 -81 128 -240 89 -105 109
-123 141 -129 27 -5 44 -2 68 12 27 16 538 435 554 454 3 3 57 49 120 100 63
52 117 97 120 100 3 3 100 84 215 180 116 95 212 176 215 179 3 3 28 24 55 46
28 21 52 42 55 45 3 3 30 25 60 50 30 25 57 47 60 50 3 3 113 95 245 205 132
110 249 207 260 217 154 130 250 208 255 208 4 0 472 -387 615 -508 41 -35
500 -418 518 -432 11 -8 24 -20 31 -25 6 -6 106 -89 221 -185 116 -96 212
-177 215 -180 3 -3 57 -48 120 -100 63 -52 117 -97 120 -100 3 -3 30 -25 60
-50 30 -25 57 -47 60 -50 3 -3 32 -27 65 -55 33 -27 62 -52 65 -55 3 -3 28
-24 55 -46 119 -98 145 -91 280 73 49 59 92 110 95 113 34 32 46 82 31 123 -8
21 -80 86 -266 239 -120 99 -361 300 -402 335 l-53 45 -2 669 -3 669 -28 27
-27 28 -328 2 c-208 2 -338 -1 -359 -8 -66 -21 -67 -28 -67 -386 0 -289 -2
-321 -16 -310 -25 20 -545 451 -550 457 -25 27 -229 190 -258 206 -78 44 -165
58 -263 43z"/>
<path d="M2305 3564 c-438 -360 -558 -459 -569 -469 -6 -5 -34 -28 -61 -50
-28 -21 -52 -42 -55 -45 -3 -3 -68 -57 -145 -120 -77 -63 -156 -128 -175 -144
-20 -17 -53 -44 -74 -61 -21 -16 -48 -38 -60 -49 -11 -10 -114 -95 -229 -189
l-207 -171 2 -801 3 -801 28 -42 c15 -23 46 -54 69 -69 l42 -28 637 -1 637 -1
4 26 c1 14 3 288 2 609 0 581 0 582 20 583 29 0 735 0 767 0 l25 -1 0 -601
c-1 -330 1 -604 4 -608 3 -5 289 -8 635 -7 595 1 632 2 668 20 46 23 94 79
107 126 6 21 10 340 10 816 l0 780 -23 20 c-12 10 -56 46 -97 79 -41 33 -77
63 -80 66 -3 3 -95 79 -205 169 -110 90 -293 241 -406 335 -113 93 -263 217
-334 275 -71 58 -156 128 -189 156 -193 161 -491 404 -496 404 -3 0 -118 -93
-255 -206z"/>
</g>
</svg>
